<svg width="14" height="13" viewBox="0 0 14 13" fill="none" xmlns="http://www.w3.org/2000/svg">
<path d="M8.74997 13V6.94828L13.7681 1.7931C13.8427 1.71668 13.9016 1.62577 13.9414 1.5257C13.9812 1.42562 14.0011 1.31841 14 1.21034V0.448276C14 0.329386 13.9539 0.215365 13.8718 0.131297C13.7898 0.047229 13.6785 0 13.5625 0H0.437498C0.321467 0 0.210187 0.047229 0.12814 0.131297C0.0460934 0.215365 0 0.329386 0 0.448276V1.1969C8.18042e-05 1.30277 0.0206123 1.40759 0.0604084 1.5053C0.100204 1.60301 0.158479 1.69168 0.231874 1.76621L5.24998 6.98414V11.5566L8.74997 13Z" fill="#2270E4"/>
</svg>
