<svg width="23" height="22" viewBox="0 0 23 22" fill="none" xmlns="http://www.w3.org/2000/svg">
<path d="M18.8045 10.83C18.2295 9.30882 17.2312 7.99331 15.9331 7.04604C14.635 6.09878 13.0939 5.56129 11.5003 5.5C9.90675 5.56129 8.36567 6.09878 7.06754 7.04604C5.76942 7.99331 4.77115 9.30882 4.19612 10.83C4.15728 10.9399 4.15728 11.0601 4.19612 11.17C4.77115 12.6912 5.76942 14.0067 7.06754 14.954C8.36567 15.9012 9.90675 16.4387 11.5003 16.5C13.0939 16.4387 14.635 15.9012 15.9331 14.954C17.2312 14.0067 18.2295 12.6912 18.8045 11.17C18.8434 11.0601 18.8434 10.9399 18.8045 10.83ZM11.5003 15.5C8.90914 15.5 6.17129 13.535 5.17881 11C6.17129 8.465 8.90914 6.5 11.5003 6.5C14.0915 6.5 16.8294 8.465 17.8218 11C16.8294 13.535 14.0915 15.5 11.5003 15.5Z" fill="black" fill-opacity="0.85"/>
<path d="M11.5 8.25C10.9561 8.25 10.4244 8.41128 9.97218 8.71346C9.51995 9.01563 9.16747 9.44512 8.95933 9.94762C8.75119 10.4501 8.69673 11.003 8.80284 11.5365C8.90895 12.0699 9.17086 12.5599 9.55546 12.9445C9.94005 13.3291 10.4301 13.591 10.9635 13.6972C11.497 13.8033 12.0499 13.7488 12.5524 13.5407C13.0549 13.3325 13.4844 12.9801 13.7865 12.5278C14.0887 12.0756 14.25 11.5439 14.25 11C14.25 10.2707 13.9603 9.57118 13.4445 9.05546C12.9288 8.53973 12.2293 8.25 11.5 8.25ZM11.5 12.8333C11.1374 12.8333 10.7829 12.7258 10.4815 12.5244C10.18 12.3229 9.94498 12.0366 9.80622 11.7016C9.66746 11.3666 9.63115 10.998 9.70189 10.6423C9.77263 10.2867 9.94724 9.96003 10.2036 9.70364C10.46 9.44724 10.7867 9.27263 11.1423 9.20189C11.498 9.13115 11.8666 9.16746 12.2016 9.30622C12.5366 9.44498 12.8229 9.67996 13.0244 9.98145C13.2258 10.2829 13.3333 10.6374 13.3333 11C13.3333 11.4862 13.1402 11.9525 12.7964 12.2964C12.4525 12.6402 11.9862 12.8333 11.5 12.8333Z" fill="black" fill-opacity="0.85"/>
</svg>
